<svg id="Layer_1" data-name="Layer 1" xmlns="http://www.w3.org/2000/svg" viewBox="0 0 20.13 20.5"><defs><style>.cls-1{fill:#ddd;}</style></defs><title>users</title><path class="cls-1" d="M3.43,6.59a2.2,2.2,0,1,1,2.19-2.2A2.19,2.19,0,0,1,3.43,6.59Z" transform="translate(-0.5 0)"/><polygon class="cls-1" points="6.22 18.76 1.74 18.76 1.74 14.93 0 12.32 0 8.2 5.72 8.2 5.72 9.2 1 9.2 1 12.02 2.74 14.63 2.74 17.76 5.22 17.76 5.22 13.91 6.22 13.91 6.22 18.76"/><path class="cls-1" d="M17.34,6.59a2.2,2.2,0,1,0-2.2-2.2A2.2,2.2,0,0,0,17.34,6.59Z" transform="translate(-0.5 0)"/><polygon class="cls-1" points="18.39 18.76 13.91 18.76 13.91 13.91 14.91 13.91 14.91 17.76 17.39 17.76 17.39 14.63 19.13 12.02 19.13 9.2 14.41 9.2 14.41 8.2 20.13 8.2 20.13 12.32 18.39 14.93 18.39 18.76"/><path class="cls-1" d="M10.57,5.49a2.75,2.75,0,1,1,2.74-2.74A2.75,2.75,0,0,1,10.57,5.49Z" transform="translate(-0.5 0)"/><path class="cls-1" d="M12.8,20.5H8.33V16.73L5.72,14.12V8.2h9.69v5.92L12.8,16.73Zm-3.47-1H11.8V16.31l2.61-2.6V9.2H6.72v4.51l2.61,2.6Z" transform="translate(-0.5 0)"/></svg>